<?xml version="1.0" encoding="UTF-8"?>
<svg id="_レイヤー_2" data-name="レイヤー 2" xmlns="http://www.w3.org/2000/svg" viewBox="0 0 195.44 72.87">
  <defs>
    <style>
      .cls-1 {
        fill: #fff;
      }
    </style>
  </defs>
  <g id="_デザイン" data-name="デザイン">
    <g>
      <path class="cls-1" d="M29.42,0v5.14h-11.78v35.45h-5.81V5.14H0V0h29.42Z"/>
      <path class="cls-1" d="M88.54,0v27.04c0,4.37,1,9.62,7.63,9.62,1.88,0,4.76-.83,6.19-3.48,1.11-2.21,1.22-5.31,1.22-7.52V0h5.09v27.26c0,3.98-.83,8.07-3.59,10.89-3.26,3.37-7.19,3.65-10.18,3.65-1.99,0-6.58-.66-9.4-4.76-2.27-3.32-2.6-6.64-2.6-10.29V0h5.64Z"/>
      <path class="cls-1" d="M124.05,0h7.19l15.32,34.73V0h4.65v40.59h-7.08l-15.43-34.97h0s0,34.97,0,34.97h-4.65V0Z"/>
      <path class="cls-1" d="M165.63,0h5.53v40.59h-5.53V0ZM188.8,0h6.36v.83l-15.82,17.86,16.09,21.35v.55h-6.86l-15.93-21.68L188.8,0Z"/>
      <path class="cls-1" d="M59.19,21.84c3.65-1.16,8.68-3.21,8.68-10.84C67.87,6.86,65.44,0,54.1,0h-12.5v40.59h5.7V4.76h5.53c6.08,0,9.29,2.1,9.29,6.86s-3.48,5.7-5.7,6.19c-1.77.37-4.88.43-7.63.41v4.35h4.76l9.62,18.03h6.22v-.74l-10.2-18.01Z"/>
      <g>
        <path class="cls-1" d="M11.09,61.1h3.94c1.52,0,2.67.66,3.43,1.96.27.44.45.89.52,1.37.06.48.08,1.3.08,2.48,0,1.25-.04,2.12-.13,2.62-.04.25-.1.47-.19.67-.09.19-.19.39-.32.6-.33.55-.79,1-1.38,1.36-.58.38-1.3.57-2.14.57h-3.82v-11.63ZM12.8,71.07h2.04c.96,0,1.66-.34,2.09-1.01.19-.25.31-.57.36-.95.05-.38.07-1.09.07-2.13s-.02-1.74-.07-2.17c-.06-.44-.21-.79-.44-1.06-.47-.68-1.15-1-2.01-.98h-2.04v8.31Z"/>
        <path class="cls-1" d="M27.15,61.1h7.19v1.66h-5.49v3.33h4.69v1.56h-4.69v3.42h5.49v1.66h-7.19v-11.63Z"/>
        <path class="cls-1" d="M57.46,61.1h1.71v11.63h-1.71v-11.63Z"/>
        <path class="cls-1" d="M71.09,66.33h4v2.37c-.02,1.16-.41,2.14-1.16,2.92-.76.78-1.71,1.18-2.86,1.2-.89-.02-1.62-.24-2.22-.67-.6-.41-1.04-.88-1.31-1.42-.08-.18-.16-.34-.22-.5-.06-.16-.11-.37-.15-.62-.08-.47-.12-1.37-.12-2.7s.04-2.25.12-2.71c.08-.46.21-.83.38-1.11.27-.54.71-1.02,1.31-1.44.59-.43,1.33-.64,2.22-.65,1.09.01,1.97.34,2.66,1,.68.66,1.12,1.48,1.3,2.45h-1.81c-.14-.47-.39-.87-.76-1.2-.38-.32-.85-.48-1.39-.49-.4.01-.75.09-1.04.25-.29.16-.53.36-.71.6-.22.25-.37.57-.44.97-.08.42-.12,1.2-.12,2.34s.04,1.92.12,2.33c.07.41.22.73.44.98.18.24.42.43.71.58.29.18.63.26,1.04.26.67,0,1.21-.23,1.65-.7.43-.45.66-1.04.67-1.77v-.61h-2.3v-1.66Z"/>
        <path class="cls-1" d="M83.17,61.1h1.61l5.1,8.27h.03v-8.27h1.71v11.63h-1.62l-5.09-8.27h-.03v8.27h-1.71v-11.63Z"/>
        <path class="cls-1" d="M108.76,66.91c0-1.35.04-2.26.12-2.72.08-.46.21-.83.38-1.11.27-.53.71-1.01,1.31-1.43.59-.42,1.33-.64,2.22-.65.9.01,1.64.23,2.24.65.59.42,1.02.9,1.28,1.44.19.28.32.65.39,1.11.07.46.1,1.36.1,2.71s-.03,2.23-.1,2.7c-.07.47-.2.84-.39,1.12-.26.54-.69,1.01-1.28,1.42-.6.43-1.34.65-2.24.67-.89-.02-1.62-.24-2.22-.67-.6-.41-1.04-.88-1.31-1.42-.08-.18-.16-.34-.22-.5-.06-.16-.11-.37-.15-.62-.08-.47-.12-1.37-.12-2.7ZM110.47,66.91c0,1.15.04,1.92.12,2.33.07.41.22.73.44.98.18.24.42.43.71.58.29.18.63.26,1.04.26s.76-.09,1.06-.26c.28-.15.51-.34.68-.58.22-.25.37-.58.46-.98.08-.4.12-1.18.12-2.33s-.04-1.93-.12-2.34c-.08-.39-.23-.72-.46-.97-.17-.24-.4-.44-.68-.6-.3-.15-.65-.24-1.06-.25-.4.01-.75.09-1.04.25-.29.16-.53.36-.71.6-.22.25-.37.57-.44.97-.08.42-.12,1.2-.12,2.34Z"/>
        <path class="cls-1" d="M124.55,61.1h7.19v1.66h-5.49v3.44h4.69v1.56h-4.69v4.97h-1.71v-11.63Z"/>
        <path class="cls-1" d="M138.76,61.1h7.19v1.66h-5.49v3.44h4.69v1.56h-4.69v4.97h-1.71v-11.63Z"/>
        <path class="cls-1" d="M152.98,61.1h1.71v11.63h-1.71v-11.63Z"/>
        <path class="cls-1" d="M170.22,69.48c-.25,1.08-.72,1.91-1.41,2.48-.72.57-1.56.86-2.54.86-.89-.02-1.62-.24-2.22-.67-.6-.41-1.04-.88-1.31-1.42-.08-.18-.16-.34-.22-.5-.06-.16-.11-.37-.15-.62-.08-.47-.12-1.37-.12-2.7s.04-2.25.12-2.71c.08-.46.21-.83.38-1.11.27-.54.71-1.02,1.31-1.44.59-.43,1.33-.64,2.22-.65,1.09.01,1.97.34,2.66,1,.68.66,1.12,1.47,1.3,2.44h-1.81c-.14-.47-.39-.87-.76-1.2-.38-.31-.85-.48-1.39-.49-.4.01-.75.09-1.04.25-.29.16-.53.36-.71.6-.22.25-.37.57-.44.97-.08.42-.12,1.2-.12,2.34s.04,1.92.12,2.33c.07.41.22.73.44.98.18.24.42.43.71.58.29.18.63.26,1.04.26.96,0,1.68-.53,2.15-1.59h1.81Z"/>
        <path class="cls-1" d="M177.15,61.1h7.19v1.66h-5.49v3.33h4.69v1.56h-4.69v3.42h5.49v1.66h-7.19v-11.63Z"/>
        <path class="cls-1" d="M46.58,66.09l-1.05-.3c-1.47-.41-1.78-.91-1.78-1.52,0-.98.79-1.61,2-1.61,1.15,0,1.9.58,2.06,1.6l.03.19h1.69v-.24c-.12-1.88-1.69-3.24-3.74-3.24-2.26,0-3.78,1.34-3.78,3.34,0,1.66.85,2.64,2.77,3.16l1.29.36c1.64.45,1.85,1.14,1.85,1.69,0,.96-.89,1.66-2.13,1.66-1.32,0-2.23-.64-2.37-1.68l-.03-.19h-1.7l.02.24c.14,2.02,1.7,3.32,3.96,3.32,2.42,0,3.98-1.38,3.98-3.51,0-1.73-.89-2.67-3.08-3.27Z"/>
      </g>
    </g>
  </g>
</svg>