<?xml version="1.0" encoding="UTF-8"?>
<svg id="_レイヤー_2" data-name="レイヤー 2" xmlns="http://www.w3.org/2000/svg" viewBox="0 0 368.65 272.57">
  <defs>
    <style>
      .cls-1 {
        fill: #fff;
      }

      .cls-2 {
        stroke-dasharray: 1 2 1 2 1 2;
      }

      .cls-2, .cls-3 {
        stroke-width: .5px;
      }

      .cls-2, .cls-3, .cls-4 {
        fill: none;
        stroke: #8f8574;
        stroke-linecap: round;
        stroke-linejoin: round;
      }

      .cls-5 {
        fill: #8f8574;
        font-family: AvenirNext-Medium, 'AvenirNext Medium';
        font-size: 12px;
        font-weight: 500;
      }

      .cls-4 {
        stroke-width: 1.5px;
      }
    </style>
  </defs>
  <g id="_デザイン" data-name="デザイン">
    <g>
      <path class="cls-1" d="M344.98,160.68V.3H58.77v15.94H1.03v93.71h57.99v134.14h125.41v27.27h183.75v-110.69h-23.2Z"/>
      <g>
        <g>
          <rect class="cls-3" x="211.21" y="186.3" width="8.06" height="23.77"/>
          <rect class="cls-3" x="219.27" y="186.3" width="7.95" height="23.77"/>
          <rect class="cls-3" x="227.22" y="186.3" width="7.95" height="23.77"/>
          <rect class="cls-3" x="235.17" y="186.3" width="7.95" height="23.77"/>
          <rect class="cls-3" x="243.11" y="186.3" width="7.95" height="23.77"/>
          <rect class="cls-3" x="251.06" y="186.3" width="7.95" height="23.77"/>
          <rect class="cls-3" x="259.01" y="186.3" width="7.95" height="23.77"/>
          <rect class="cls-3" x="266.96" y="186.3" width="7.95" height="23.77"/>
          <rect class="cls-3" x="274.91" y="186.3" width="7.95" height="23.77"/>
          <polyline class="cls-3" points="282.85 210.07 282.85 186.3 308.79 186.3 308.79 210.07"/>
          <polyline class="cls-3" points="279.69 200.96 277.53 198.19 293.56 198.19 293.56 219.14"/>
          <polyline class="cls-3" points="43.78 87.68 43.78 67.82 41 69.9"/>
          <polyline class="cls-3" points="184.15 210.37 184.15 271.82 308.71 271.82 308.71 271.82 367.9 271.82 367.9 161.13 344.7 161.13 344.7 .75 192.48 .75 192.48 .75 89.01 .75 58.49 .75 58.49 16.69 .75 16.69 .75 110.4 58.74 110.4"/>
          <line class="cls-3" x1="282.85" y1="210.07" x2="184.15" y2="210.07"/>
          <polyline class="cls-3" points="161.15 82.8 308.79 82.94 308.79 210.07"/>
          <line class="cls-3" x1="113.89" y1="82.94" x2="138.29" y2="82.94"/>
          <polyline class="cls-3" points="58.49 16.69 58.49 82.94 91.04 82.94"/>
          <polyline class="cls-3" points="184.15 244.55 184.15 244.55 58.74 244.55 58.74 110.4"/>
          <polyline class="cls-3" points="1.16 82.94 29.94 82.94 29.94 41.59"/>
          <rect class="cls-3" x=".75" y="65.84" width="29.07" height="6.79"/>
          <rect class="cls-3" x=".75" y="59.05" width="29.07" height="6.79"/>
          <rect class="cls-3" x=".75" y="52.27" width="29.07" height="6.79"/>
          <rect class="cls-3" x=".75" y="45.48" width="29.07" height="6.79"/>
          <rect class="cls-3" x="29.82" y="65.84" width="28.66" height="6.79"/>
          <rect class="cls-3" x="29.82" y="59.05" width="28.66" height="6.79"/>
          <rect class="cls-3" x="29.82" y="52.27" width="28.66" height="6.79"/>
          <rect class="cls-3" x="29.82" y="45.48" width="28.66" height="6.79"/>
          <line class="cls-3" x1="184.32" y1="82.94" x2="184.32" y2="210.51"/>
          <line class="cls-3" x1="110.18" y1="110.43" x2="58.74" y2="110.43"/>
          <line class="cls-3" x1="184.15" y1="110.43" x2="133.03" y2="110.43"/>
          <line class="cls-3" x1="134.2" y1=".75" x2="134.2" y2="82.94"/>
          <polyline class="cls-3" points="91.04 50.6 91.04 52.81 58.74 52.81"/>
          <line class="cls-3" x1="91.04" y1="1.12" x2="91.04" y2="27.75"/>
          <line class="cls-3" x1="234.55" y1="1.12" x2="234.55" y2="82.8"/>
          <line class="cls-3" x1="308.79" y1="161.13" x2="315.13" y2="161.13"/>
          <line class="cls-3" x1="338.35" y1="161.13" x2="344.7" y2="161.13"/>
          <line class="cls-3" x1="308.79" y1="110.4" x2="315.13" y2="110.4"/>
          <line class="cls-3" x1="338.35" y1="110.4" x2="344.7" y2="110.4"/>
          <line class="cls-2" x1="308.79" y1="210.07" x2="185.38" y2="82.94"/>
          <line class="cls-2" x1="308.79" y1="82.94" x2="184.15" y2="210.07"/>
        </g>
        <g>
          <rect class="cls-3" x="58.49" y="52.81" width="14.5" height="30.13"/>
          <rect class="cls-3" x="60.42" y="62.01" width="12.57" height="18.46"/>
          <rect class="cls-3" x="58.47" y="70.91" width="3.57" height=".65"/>
        </g>
        <path class="cls-3" d="M138.29,82.8v-22.19s22.85-1.46,22.85,22.19"/>
        <path class="cls-3" d="M91.04,50.6h-22.19s-1.46-22.85,22.19-22.85"/>
        <path class="cls-3" d="M338.35,110.4v22.19s-22.85,1.46-22.85-22.19"/>
        <rect class="cls-3" x="110.78" y="112.23" width="21.85" height="1.8"/>
        <polyline class="cls-2" points="110.78 114.03 88.94 114.03 88.94 110.23"/>
        <g>
          <path class="cls-3" d="M177.42,205.69c-.34,0-.62.29-.62.64l.11,6.68-.11,6.68c0,.35.28.64.62.64h6.09c.34,0,.62-.29.62-.64l-.11-6.68.11-6.68c0-.35-.28-.64-.62-.64h-6.09Z"/>
          <path class="cls-3" d="M177.42,223.97c-.34,0-.62.29-.62.64l.11,6.68-.11,6.68c0,.35.28.64.62.64h6.09c.34,0,.62-.29.62-.64l-.11-6.68.11-6.68c0-.35-.28-.64-.62-.64h-6.09Z"/>
          <path class="cls-3" d="M123.34,199.75h50.56c.31,0,.56.25.56.56v43.58c0,.31-.25.56-.56.56h-50.56c-.31,0-.56-.25-.56-.56v-43.59c0-.31.25-.56.56-.56Z"/>
          <rect class="cls-3" x="122.78" y="199.69" width="61.55" height="44.85"/>
          <path class="cls-3" d="M177.42,156.82c-.34,0-.62.29-.62.64l.11,6.68-.11,6.68c0,.35.28.64.62.64h6.09c.34,0,.62-.29.62-.64l-.11-6.68.11-6.68c0-.35-.28-.64-.62-.64h-6.09Z"/>
          <path class="cls-3" d="M177.42,175.11c-.34,0-.62.29-.62.64l.11,6.68-.11,6.68c0,.35.28.64.62.64h6.09c.34,0,.62-.29.62-.64l-.11-6.68.11-6.68c0-.35-.28-.64-.62-.64h-6.09Z"/>
          <rect class="cls-3" x="122.78" y="150.88" width="51.69" height="44.71" rx=".56" ry=".56"/>
          <rect class="cls-3" x="122.78" y="150.83" width="61.55" height="44.85"/>
          <path class="cls-3" d="M227.84,6.74c-.34,0-.62.29-.62.64l.11,6.68-.11,6.68c0,.35.28.64.62.64h6.09c.34,0,.62-.29.62-.64l-.11-6.68.11-6.68c0-.35-.28-.64-.62-.64h-6.09Z"/>
          <path class="cls-3" d="M227.84,25.03c-.34,0-.62.29-.62.64l.11,6.68-.11,6.68c0,.35.28.64.62.64h6.09c.34,0,.62-.29.62-.64l-.11-6.68.11-6.68c0-.35-.28-.64-.62-.64h-6.09Z"/>
          <path class="cls-3" d="M173.5.81h50.63c.31,0,.56.25.56.56v43.59c0,.31-.25.56-.56.56h-50.63c-.31,0-.56-.25-.56-.56V1.37c0-.31.25-.56.56-.56Z"/>
          <rect class="cls-3" x="173.01" y=".75" width="61.55" height="44.85"/>
          <path class="cls-3" d="M295.4,76.09c0-.34-.29-.62-.64-.62l-6.68.11-6.68-.11c-.35,0-.64.28-.64.62v6.09c0,.34.29.62.64.62l6.68-.11,6.68.11c.35,0,.64-.28.64-.62v-6.09Z"/>
          <path class="cls-3" d="M277.12,76.09c0-.34-.29-.62-.64-.62l-6.68.11-6.68-.11c-.35,0-.64.28-.64.62v6.09c0,.34.29.62.64.62l6.68-.11,6.68.11c.35,0,.64-.28.64-.62v-6.09Z"/>
          <path class="cls-3" d="M257.19,21.25h43.59c.31,0,.56.25.56.56v50.57c0,.31-.25.56-.56.56h-43.59c-.31,0-.56-.25-.56-.56V21.81c0-.31.25-.56.56-.56Z"/>
          <rect class="cls-3" x="256.54" y="21.25" width="44.85" height="61.55"/>
        </g>
        <g>
          <path class="cls-3" d="M74.76,27.73c-6.1,0-7.12-6.89-7.12-10.22,0-3.33,0-13.34,0-14.82,0-1.48.68-1.58,1.44-1.58.76,0,5.68,0,5.68,0,0,0,4.92,0,5.68,0,.76,0,1.44.1,1.44,1.58s0,11.49,0,14.82c0,3.33-1.02,10.22-7.12,10.22Z"/>
          <polyline class="cls-3" points="67.64 10.36 68.57 10.36 68.57 9.13 74.76 9.13 80.95 9.13 80.95 10.36 81.88 10.36"/>
        </g>
      </g>
      <g>
        <text class="cls-5" transform="translate(74.54 46.12)"><tspan x="0" y="0">WC</tspan></text>
        <g>
          <text class="cls-5" transform="translate(260.07 16.69)"><tspan x="0" y="0">BED ROOM3</tspan></text>
          <text class="cls-5" transform="translate(160.35 61.35)"><tspan x="0" y="0">BED ROOM2</tspan></text>
          <text class="cls-5" transform="translate(81.16 177.47)"><tspan x="0" y="0">BED</tspan><tspan x="-9.2" y="16.89">ROOM1</tspan></text>
          <text class="cls-5" transform="translate(276.41 232)"><tspan x="0" y="0">DOWN</tspan></text>
          <text class="cls-5" transform="translate(26.62 100.85)"><tspan x="0" y="0">DOWN</tspan></text>
        </g>
        <text class="cls-5" transform="translate(233.58 125.14)"><tspan x="0" y="0">VOID</tspan></text>
      </g>
      <path class="cls-4" d="M344.7,161.13V.75H58.49v15.94H.75v93.71h57.99v134.14h125.41v27.27h183.75v-110.69h-23.2Z"/>
    </g>
  </g>
</svg>