<?xml version="1.0" encoding="UTF-8"?>
<svg id="_レイヤー_2" data-name="レイヤー 2" xmlns="http://www.w3.org/2000/svg" viewBox="0 0 22 22">
  <defs>
    <style>
      .cls-1 {
        fill: #8f8574;
      }
    </style>
  </defs>
  <g id="_フッター" data-name="フッター">
    <g>
      <path class="cls-1" d="M21.93,6.46c-.05-1.17-.24-1.97-.51-2.67-.28-.72-.66-1.34-1.27-1.95-.61-.61-1.23-.99-1.95-1.27-.7-.27-1.5-.46-2.67-.51-1.17-.05-1.55-.07-4.54-.07s-3.36.01-4.54.07c-1.17.05-1.97.24-2.67.51-.72.28-1.34.66-1.95,1.27-.61.61-.99,1.22-1.27,1.95-.27.7-.46,1.5-.51,2.67-.05,1.17-.07,1.55-.07,4.53s.01,3.36.07,4.54c.05,1.17.24,1.97.51,2.67.28.72.66,1.34,1.27,1.95.61.61,1.23.99,1.95,1.27.7.27,1.5.46,2.67.51,1.17.05,1.55.07,4.54.07s3.36-.01,4.54-.07c1.17-.05,1.97-.24,2.67-.51.72-.28,1.34-.66,1.95-1.27.61-.61.99-1.23,1.27-1.95.27-.7.46-1.5.51-2.67.05-1.17.07-1.55.07-4.54s-.01-3.36-.07-4.53ZM19.95,15.44c-.05,1.07-.23,1.66-.38,2.04-.2.51-.44.88-.82,1.26-.38.38-.75.62-1.26.82-.39.15-.97.33-2.04.38-1.16.05-1.51.06-4.44.06s-3.29-.01-4.44-.06c-1.07-.05-1.65-.23-2.04-.38-.51-.2-.88-.44-1.26-.82-.38-.38-.62-.75-.82-1.26-.15-.39-.33-.97-.38-2.04-.05-1.16-.06-1.51-.06-4.45s.01-3.28.06-4.44c.05-1.07.23-1.66.38-2.04.2-.51.44-.88.82-1.26.38-.38.75-.62,1.26-.82.39-.15.97-.33,2.04-.38,1.16-.05,1.51-.06,4.44-.06s3.29.01,4.44.06c1.07.05,1.65.23,2.04.38.51.2.88.44,1.26.82.38.38.62.75.82,1.26.15.39.33.97.38,2.04.05,1.16.06,1.51.06,4.44s-.01,3.28-.06,4.45Z"/>
      <path class="cls-1" d="M11,5.35c-3.12,0-5.65,2.53-5.65,5.65s2.53,5.65,5.65,5.65,5.65-2.53,5.65-5.65-2.53-5.65-5.65-5.65ZM11,14.67c-2.03,0-3.67-1.64-3.67-3.67s1.64-3.67,3.67-3.67,3.67,1.64,3.67,3.67-1.64,3.67-3.67,3.67Z"/>
      <path class="cls-1" d="M16.87,3.81c-.73,0-1.32.59-1.32,1.32s.59,1.32,1.32,1.32,1.32-.59,1.32-1.32-.59-1.32-1.32-1.32Z"/>
    </g>
  </g>
</svg>