<?xml version="1.0" encoding="UTF-8"?>
<svg id="_レイヤー_2" data-name="レイヤー 2" xmlns="http://www.w3.org/2000/svg" viewBox="0 0 127.42 115.67">
  <defs>
    <style>
      .cls-1 {
        fill: #fff;
      }
    </style>
  </defs>
  <g id="_デザイン" data-name="デザイン">
    <g>
      <g>
        <path class="cls-1" d="M3.59,98.53c0,.42.15.74.46.95.21.14.32.3.32.49v.55c0,.19-.11.28-.32.28H.27c-.18,0-.27-.08-.27-.25v-.57c0-.18.11-.34.32-.49.31-.22.46-.53.46-.95v-14.36c0-.41-.15-.72-.46-.93-.21-.14-.32-.3-.32-.5v-.53c0-.19.11-.28.32-.28h3.78c.18,0,.27.08.27.25v.56c0,.19-.11.35-.32.5-.31.22-.46.53-.46.93v14.36Z"/>
        <path class="cls-1" d="M11.15,90.66h-.42c-.19,0-.28-.08-.28-.24v-.61c0-.17.09-.32.27-.46.23-.17.38-.36.45-.58.06-.21.1-.56.1-1.05v-1.99c0-.19.13-.31.39-.34l1.48-.16c.13-.02.21-.02.25-.02.11,0,.17.1.17.29v3.84h1.24c.23,0,.35.09.35.28v.74c0,.19-.09.29-.28.29h-1.31v7.37c0,.8.25,1.2.74,1.2.11,0,.23-.02.36-.05.09-.02.16-.04.21-.04.15,0,.24.06.28.17l.18.58s.04.08.04.11c0,.18-.27.39-.8.65-.53.25-1.03.38-1.5.38-1.27,0-1.9-.79-1.9-2.36v-8.02Z"/>
        <path class="cls-1" d="M23.32,89.09c2.55,0,3.83,2.01,3.83,6.03,0,1.89-.32,3.35-.95,4.38-.63,1.03-1.54,1.54-2.73,1.54s-2.13-.5-2.78-1.51c-.65-1.01-.98-2.5-.98-4.48s.34-3.58,1.02-4.53c.68-.95,1.54-1.42,2.58-1.42ZM24.5,93.91c0-1.38-.08-2.33-.25-2.84-.17-.51-.44-.77-.82-.77-.7,0-1.05.98-1.05,2.93v2.74c0,1.46.08,2.46.24,3.03.16.56.45.84.87.84.36,0,.62-.22.78-.65.17-.43.25-1.23.25-2.4v-2.89Z"/>
        <path class="cls-1" d="M34.66,89.09c.79,0,1.44.2,1.96.59.51.4.77.9.77,1.5,0,.35-.12.65-.36.9-.24.25-.55.38-.93.38-.31,0-.58-.09-.82-.27-.24-.18-.36-.44-.36-.78,0-.14.04-.29.11-.46.05-.11.07-.2.07-.25,0-.28-.21-.42-.64-.42-.31,0-.58.11-.82.33-.24.22-.36.53-.36.93,0,.34.11.66.33.96.22.3.79.79,1.72,1.46.9.65,1.52,1.24,1.88,1.79.36.55.53,1.16.53,1.85,0,1.09-.35,1.94-1.06,2.54-.7.6-1.54.9-2.51.9s-1.67-.22-2.24-.66c-.57-.44-.85-1-.85-1.68,0-.37.11-.69.34-.96s.55-.41.98-.41c.78,0,1.16.37,1.16,1.1,0,.12-.02.28-.07.47-.05.18-.07.3-.07.38,0,.4.28.59.85.59.43,0,.79-.14,1.07-.41.28-.27.42-.58.42-.93,0-.38-.12-.73-.37-1.05-.25-.32-.73-.75-1.45-1.3-.97-.74-1.65-1.38-2.05-1.92-.4-.54-.59-1.18-.59-1.93,0-.96.34-1.74,1.02-2.34s1.46-.9,2.33-.9Z"/>
        <path class="cls-1" d="M45.84,91.47v7.57c0,.27.09.51.28.72.09.1.13.17.13.21v.67c0,.11-.06.16-.17.16h-3.01c-.13,0-.19-.06-.19-.18v-.64c0-.06.05-.13.16-.21.27-.21.4-.5.4-.86v-14.82c0-.44-.17-.75-.52-.92-.15-.07-.22-.18-.22-.32v-.59c0-.15.09-.22.27-.22l2.87-.1v8.27c.77-.67,1.51-1.01,2.23-1.01,1.33,0,1.99.79,1.99,2.38v7.47c0,.25.11.51.32.78.11.13.16.22.16.27v.51c0,.13-.06.19-.18.19h-2.97c-.13,0-.19-.06-.19-.19v-.63c0-.06.04-.13.13-.19.22-.17.33-.37.33-.61v-7.48c0-.58-.24-.87-.72-.87-.39,0-.76.22-1.1.67Z"/>
        <path class="cls-1" d="M58.74,89.35v9.51c0,.42.17.72.52.9.15.08.22.2.22.35v.45c0,.15-.09.23-.27.23h-3.35c-.18,0-.27-.08-.27-.23v-.45c0-.16.08-.28.23-.35.34-.17.51-.47.51-.9v-7.5c0-.44-.17-.74-.52-.92-.15-.08-.22-.19-.22-.32v-.45c0-.15.09-.22.27-.23l2.87-.08ZM57.48,82.93c.42,0,.77.14,1.06.42.28.28.42.63.42,1.03s-.14.74-.42,1.02c-.28.28-.62.42-1.02.42s-.75-.14-1.03-.42c-.28-.28-.42-.62-.42-1.02,0-.42.15-.77.44-1.04.29-.27.62-.41.98-.41Z"/>
        <path class="cls-1" d="M67.42,91.43v7.39c0,.32.12.61.35.87.1.12.16.21.16.28v.52c0,.19-.1.29-.29.29h-2.84c-.18,0-.27-.08-.27-.23v-.58c0-.11.06-.23.19-.34.19-.18.29-.4.29-.65v-7.62c0-.37-.13-.67-.39-.9-.14-.12-.21-.23-.21-.33v-.52c0-.18.13-.27.38-.27l2.62-.06v.95c.76-.7,1.52-1.04,2.28-1.04s1.32.4,1.71,1.21c.91-.81,1.72-1.21,2.43-1.21.65,0,1.14.23,1.49.7.34.47.52,1.08.52,1.85v7.24c0,.29.11.54.32.74.11.11.17.19.17.25v.52c0,.19-.09.29-.27.29h-2.83c-.17,0-.25-.08-.25-.24v-.57c0-.1.05-.21.16-.32.2-.19.3-.46.3-.84v-6.97c0-.67-.24-1.01-.73-1.01-.27,0-.62.2-1.07.59v7.39c0,.39.13.7.39.93.1.09.15.16.15.22v.49c0,.22-.1.33-.3.33h-2.84c-.17,0-.25-.08-.25-.25v-.56c0-.1.05-.21.16-.32.2-.19.3-.47.3-.84v-6.83c0-.77-.25-1.15-.75-1.15-.29,0-.65.2-1.07.59Z"/>
        <path class="cls-1" d="M85.21,93.49v-1.7c0-1-.39-1.5-1.16-1.5-.27,0-.41.08-.41.25,0,.06.02.16.07.29.1.23.15.44.15.61,0,.31-.1.57-.3.78-.2.21-.48.32-.84.32-.39,0-.7-.12-.93-.36-.23-.24-.35-.55-.35-.94,0-.64.28-1.16.85-1.56s1.23-.6,1.98-.6c1.06,0,1.88.28,2.47.85.59.57.88,1.38.88,2.42v6.04c0,.33.03.58.1.76.07.17.22.28.45.33.19.04.29.15.29.32v.52c0,.43-.33.64-.99.64-.89,0-1.5-.43-1.84-1.29-.78.9-1.53,1.35-2.25,1.35s-1.25-.28-1.7-.85c-.45-.57-.67-1.3-.67-2.19,0-2.28,1.4-3.78,4.2-4.5ZM85.21,94.73c-1.14.42-1.71,1.35-1.71,2.78,0,1.12.3,1.69.89,1.69.26,0,.46-.13.61-.38s.22-.54.22-.84v-3.24Z"/>
        <path class="cls-1" d="M97.09,91.81c-.87-.94-1.46-1.78-1.78-2.52-.32-.74-.49-1.53-.49-2.35,0-1.24.34-2.27,1.01-3.1.67-.83,1.56-1.24,2.66-1.24s1.94.38,2.63,1.13c.69.75,1.03,1.61,1.03,2.58,0,1.36-.79,2.77-2.38,4.24,2.05,1.67,3.07,3.55,3.07,5.65,0,1.41-.38,2.57-1.14,3.48-.76.91-1.79,1.36-3.09,1.36s-2.26-.43-3.06-1.29c-.79-.86-1.19-1.88-1.19-3.06,0-1.68.91-3.31,2.73-4.87ZM97.85,92.46c-1.05,1.41-1.58,2.81-1.58,4.2,0,.94.23,1.7.68,2.28.45.58,1.03.87,1.73.87.62,0,1.13-.24,1.52-.72.39-.48.59-1.08.59-1.79,0-1.55-.98-3.17-2.95-4.84ZM99.08,89.86c.92-1.19,1.38-2.31,1.38-3.37,0-.77-.19-1.41-.58-1.92-.38-.51-.85-.77-1.39-.77s-.94.19-1.27.58-.5.89-.5,1.49c0,1.35.78,2.68,2.35,3.99Z"/>
        <path class="cls-1" d="M121.67,91.81c-.87-.94-1.46-1.78-1.78-2.52-.32-.74-.49-1.53-.49-2.35,0-1.24.34-2.27,1.01-3.1.67-.83,1.56-1.24,2.66-1.24s1.94.38,2.63,1.13c.69.75,1.03,1.61,1.03,2.58,0,1.36-.79,2.77-2.38,4.24,2.05,1.67,3.07,3.55,3.07,5.65,0,1.41-.38,2.57-1.14,3.48-.76.91-1.79,1.36-3.09,1.36s-2.26-.43-3.06-1.29c-.79-.86-1.19-1.88-1.19-3.06,0-1.68.91-3.31,2.73-4.87ZM122.43,92.46c-1.05,1.41-1.58,2.81-1.58,4.2,0,.94.23,1.7.68,2.28s1.03.87,1.73.87c.62,0,1.13-.24,1.52-.72.39-.48.59-1.08.59-1.79,0-1.55-.98-3.17-2.95-4.84ZM123.66,89.86c.92-1.19,1.38-2.31,1.38-3.37,0-.77-.19-1.41-.58-1.92-.38-.51-.85-.77-1.39-.77s-.94.19-1.27.58c-.33.39-.5.89-.5,1.49,0,1.35.78,2.68,2.35,3.99Z"/>
        <path class="cls-1" d="M110.85,82.59c1.36,0,2.39.78,3.1,2.35.71,1.57,1.07,3.86,1.07,6.89s-.36,5.37-1.09,6.91c-.72,1.53-1.71,2.3-2.96,2.3s-2.21-.76-2.98-2.27c-.78-1.51-1.16-3.73-1.16-6.65,0-3.24.38-5.64,1.13-7.2.76-1.56,1.72-2.33,2.89-2.33ZM112.34,88.27c0-2.95-.47-4.43-1.41-4.43-.56,0-.93.45-1.12,1.36-.19.91-.28,2.05-.28,3.41v7.13c0,2.72.46,4.09,1.39,4.09.49,0,.85-.36,1.07-1.07s.33-2.13.33-4.24v-6.26Z"/>
      </g>
      <g>
        <path class="cls-1" d="M28.54,115.19c-.33.17-.67.29-1.03.37s-.72.11-1.09.11c-.39,0-.76-.06-1.09-.19s-.62-.3-.86-.53c-.24-.23-.43-.51-.57-.84-.14-.33-.2-.69-.2-1.1s.07-.77.2-1.1c.14-.33.32-.61.57-.84.24-.23.53-.41.86-.53s.7-.18,1.09-.18.78.05,1.12.15c.34.1.64.27.89.5l-.78.86c-.15-.16-.32-.28-.51-.36-.19-.08-.43-.12-.71-.12-.24,0-.45.04-.65.12-.19.08-.36.19-.5.34-.14.15-.24.32-.32.52-.07.2-.11.42-.11.65s.04.45.11.65c.07.2.18.37.32.51.14.14.3.26.5.34.19.08.41.12.65.12s.45-.03.63-.08c.18-.05.32-.11.42-.17v-.82h-.9v-1.03h1.97v2.64Z"/>
        <path class="cls-1" d="M30.23,110.49h1.95c.26,0,.5.03.73.08s.43.13.61.25c.17.12.31.27.41.47.1.2.15.44.15.74,0,.36-.09.66-.28.91-.19.25-.46.41-.81.47l1.28,2.13h-1.33l-1.05-2.02h-.55v2.02h-1.11v-5.05ZM31.34,112.58h.66c.1,0,.21,0,.32-.01.11,0,.21-.03.3-.06.09-.04.17-.09.22-.17.06-.08.09-.18.09-.32,0-.13-.03-.23-.08-.31s-.12-.13-.2-.18c-.08-.04-.17-.07-.28-.08-.1-.01-.21-.02-.31-.02h-.73v1.15Z"/>
        <path class="cls-1" d="M37.23,110.49h.92l2.2,5.05h-1.25l-.43-1.07h-1.96l-.42,1.07h-1.23l2.18-5.05ZM37.65,111.96l-.61,1.57h1.23l-.62-1.57Z"/>
        <path class="cls-1" d="M41.56,110.49h1.51l2.15,3.51h.01v-3.51h1.11v5.05h-1.45l-2.2-3.59h-.01v3.59h-1.11v-5.05Z"/>
        <path class="cls-1" d="M48.08,110.49h1.67c.4,0,.79.05,1.15.14.36.09.68.24.95.44.27.2.49.46.65.79.16.32.24.72.24,1.18,0,.41-.08.77-.23,1.08-.15.31-.36.57-.62.78-.26.21-.56.37-.91.48-.34.11-.7.16-1.08.16h-1.82v-5.05ZM49.19,114.52h.58c.26,0,.5-.03.72-.08s.41-.14.57-.26c.16-.12.29-.28.38-.48.09-.2.14-.44.14-.72,0-.25-.05-.46-.14-.65-.09-.18-.22-.33-.37-.45s-.34-.21-.55-.27-.43-.09-.67-.09h-.66v2.99Z"/>
        <path class="cls-1" d="M56.53,110.49h1.27l1.25,3.31h.01l1.27-3.31h1.19l-2.08,5.05h-.89l-2.02-5.05Z"/>
        <path class="cls-1" d="M62.75,110.49h1.11v5.05h-1.11v-5.05Z"/>
        <path class="cls-1" d="M65.63,110.49h3.43v1.03h-2.32v.94h2.19v1.03h-2.19v1.03h2.45v1.03h-3.56v-5.05Z"/>
        <path class="cls-1" d="M70.26,110.49h1.21l.81,3.24h.01l1.05-3.24h1.03l1.05,3.32h.01l.85-3.32h1.13l-1.48,5.05h-.99l-1.11-3.49h-.01l-1.11,3.49h-.95l-1.5-5.05Z"/>
        <path class="cls-1" d="M80.95,110.49h1.27l1.25,3.31h.01l1.27-3.31h1.19l-2.08,5.05h-.89l-2.02-5.05Z"/>
        <path class="cls-1" d="M87.02,110.49h1.11v5.05h-1.11v-5.05Z"/>
        <path class="cls-1" d="M89.9,110.49h1.11v4.02h2.06v1.03h-3.17v-5.05Z"/>
        <path class="cls-1" d="M94.45,110.49h1.11v4.02h2.06v1.03h-3.17v-5.05Z"/>
        <path class="cls-1" d="M100.61,110.49h.92l2.2,5.05h-1.25l-.43-1.07h-1.96l-.42,1.07h-1.23l2.18-5.05ZM101.03,111.96l-.61,1.57h1.23l-.62-1.57Z"/>
      </g>
      <g>
        <rect class="cls-1" x="57.2" y="13.71" width="13.02" height="46.19"/>
        <rect class="cls-1" x="72.07" y="40.58" width="13.02" height="19.32"/>
        <polygon class="cls-1" points="55.35 38.73 55.35 13.71 52.99 13.71 42.34 27.33 42.34 38.73 55.35 38.73"/>
        <rect class="cls-1" x="42.34" y="40.58" width="13.02" height="19.32"/>
        <polygon class="cls-1" points="56.28 11.86 71.14 11.86 72.99 11.86 63.71 0 54.43 11.86 56.28 11.86"/>
        <polygon class="cls-1" points="72.07 38.73 85.09 38.73 85.09 27.33 74.43 13.71 72.07 13.71 72.07 38.73"/>
        <polygon class="cls-1" points="40.49 29.69 16.86 59.9 40.49 59.9 40.49 29.69"/>
        <polygon class="cls-1" points="86.93 29.69 86.93 59.9 110.57 59.9 86.93 29.69"/>
      </g>
    </g>
  </g>
</svg>