<?xml version="1.0" encoding="UTF-8"?>
<svg id="_レイヤー_2" data-name="レイヤー 2" xmlns="http://www.w3.org/2000/svg" viewBox="0 0 22 22">
  <defs>
    <style>
      .cls-1 {
        fill: #8f8574;
      }
    </style>
  </defs>
  <g id="_フッター" data-name="フッター">
    <g>
      <path class="cls-1" d="M15.89,8.38h-2.06c-.08,0-.14.06-.14.14h0v3.2h0c0,.08.06.14.14.14h2.06c.08,0,.14-.06.14-.14v-.52c0-.08-.06-.14-.14-.14h-1.4v-.54h1.4c.08,0,.14-.06.14-.14v-.52c0-.08-.06-.14-.14-.14h-1.4v-.54h1.4c.08,0,.14-.06.14-.14v-.52c0-.08-.06-.14-.14-.14Z"/>
      <path class="cls-1" d="M8.27,11.06h-1.4v-2.54c0-.08-.06-.14-.14-.14h-.52c-.08,0-.14.06-.14.14v3.2h0c0,.08.06.14.14.14h2.06c.08,0,.14-.06.14-.14v-.52c0-.08-.06-.14-.14-.14Z"/>
      <rect class="cls-1" x="8.85" y="8.38" width=".8" height="3.48" rx=".14" ry=".14"/>
      <path class="cls-1" d="M13.05,8.38h-.52c-.08,0-.14.06-.14.14v1.9l-1.46-1.98s0,0-.01-.01c0,0,0,0,0,0,0,0,0,0,0,0,0,0,0,0,0,0,0,0,0,0,0,0,0,0,0,0,0,0,0,0,0,0,0,0,0,0,0,0,0,0,0,0,0,0,0,0,0,0,0,0,0,0,0,0,0,0,0,0h0s0,0,0,0c0,0,0,0,0,0,0,0,0,0,0,0,0,0,0,0,0,0h0s0,0,0,0c0,0,0,0,0,0h-.52c-.08,0-.14.06-.14.14v3.2c0,.08.06.14.14.14h.52c.08,0,.14-.06.14-.14v-1.9l1.47,1.98s.02.03.04.04c0,0,0,0,0,0,0,0,0,0,0,0,0,0,0,0,0,0,0,0,0,0,0,0,0,0,0,0,0,0,0,0,0,0,0,0,0,0,0,0,0,0,0,0,0,0,0,0,.01,0,.02,0,.04,0h.52c.08,0,.14-.06.14-.14v-3.2c0-.08-.06-.14-.14-.14Z"/>
      <path class="cls-1" d="M17.04,0H4.96C2.22,0,0,2.22,0,4.96v12.08c0,2.74,2.22,4.96,4.96,4.96h12.08c2.74,0,4.96-2.22,4.96-4.96V4.96c0-2.74-2.22-4.96-4.96-4.96ZM16.76,13.63h0c-1.54,1.77-4.98,3.93-5.76,4.26-.78.33-.67-.21-.64-.4.02-.11.1-.63.1-.63.02-.19.05-.48-.02-.66-.08-.2-.41-.31-.65-.36-3.52-.47-6.13-2.93-6.13-5.87,0-3.28,3.29-5.95,7.33-5.95s7.33,2.67,7.33,5.95c0,1.31-.51,2.5-1.57,3.66Z"/>
    </g>
  </g>
</svg>