<?xml version="1.0" encoding="UTF-8"?>
<svg id="_レイヤー_2" data-name="レイヤー 2" xmlns="http://www.w3.org/2000/svg" viewBox="0 0 121.36 117.22">
  <defs>
    <style>
      .cls-1 {
        fill: #fff;
      }
    </style>
  </defs>
  <g id="_デザイン" data-name="デザイン">
    <g>
      <g>
        <path class="cls-1" d="M3.42,101.21c0,.4.15.7.44.9.2.13.3.29.3.46v.52c0,.18-.1.27-.3.27H.25c-.17,0-.25-.08-.25-.24v-.54c0-.17.1-.32.3-.46.29-.21.44-.51.44-.9v-13.69c0-.39-.15-.69-.44-.89-.2-.13-.3-.29-.3-.47v-.51c0-.18.1-.27.3-.27h3.61c.17,0,.25.08.25.24v.53c0,.18-.1.34-.3.47-.29.21-.44.51-.44.89v13.69Z"/>
        <path class="cls-1" d="M10.63,93.7h-.4c-.18,0-.27-.08-.27-.23v-.58c0-.16.08-.31.25-.44.22-.16.37-.35.43-.55.06-.2.09-.54.09-1v-1.9c0-.19.12-.29.37-.32l1.41-.15c.12-.02.2-.02.24-.02.11,0,.16.09.16.28v3.67h1.18c.22,0,.34.09.34.27v.71c0,.18-.09.28-.27.28h-1.25v7.03c0,.76.24,1.14.71,1.14.11,0,.22-.02.35-.05.08-.02.15-.03.2-.03.14,0,.23.05.27.16l.17.56s.03.08.03.1c0,.17-.25.38-.76.62-.51.24-.99.36-1.43.36-1.21,0-1.82-.75-1.82-2.26v-7.65Z"/>
        <path class="cls-1" d="M22.24,92.21c2.44,0,3.65,1.92,3.65,5.75,0,1.8-.3,3.2-.9,4.18-.6.98-1.47,1.47-2.6,1.47s-2.03-.48-2.65-1.44c-.62-.96-.93-2.38-.93-4.27s.32-3.41.97-4.32c.65-.91,1.47-1.36,2.46-1.36ZM23.36,96.8c0-1.32-.08-2.22-.24-2.71-.16-.49-.42-.73-.79-.73-.67,0-1.01.93-1.01,2.8v2.61c0,1.39.08,2.35.23,2.89.15.54.43.8.83.8.34,0,.59-.21.75-.62.16-.41.24-1.17.24-2.28v-2.75Z"/>
        <path class="cls-1" d="M33.06,92.21c.76,0,1.38.19,1.87.57.49.38.73.86.73,1.43,0,.33-.11.62-.34.86-.23.24-.52.36-.88.36-.29,0-.55-.09-.78-.26-.23-.17-.34-.42-.34-.75,0-.13.04-.28.11-.44.05-.11.07-.19.07-.24,0-.27-.2-.4-.61-.4-.29,0-.55.11-.78.32-.23.21-.34.51-.34.88,0,.32.1.63.31.92.21.29.76.75,1.64,1.39.86.62,1.45,1.19,1.79,1.71.34.52.51,1.11.51,1.76,0,1.04-.34,1.85-1.01,2.42-.67.57-1.47.86-2.39.86s-1.59-.21-2.13-.63c-.54-.42-.82-.95-.82-1.6,0-.35.11-.66.32-.92s.53-.39.94-.39c.74,0,1.11.35,1.11,1.05,0,.12-.02.27-.07.45-.05.17-.07.29-.07.36,0,.38.27.57.81.57.41,0,.75-.13,1.02-.39.27-.26.41-.55.41-.88,0-.36-.12-.7-.35-1-.24-.3-.7-.72-1.38-1.24-.93-.71-1.58-1.32-1.95-1.83-.38-.51-.57-1.13-.57-1.84,0-.92.32-1.66.97-2.23.65-.57,1.39-.86,2.22-.86Z"/>
        <path class="cls-1" d="M43.72,94.48v7.22c0,.26.09.49.27.68.08.09.13.16.13.2v.64c0,.1-.05.15-.16.15h-2.87c-.12,0-.19-.06-.19-.17v-.61c0-.05.05-.12.15-.2.25-.2.38-.47.38-.82v-14.13c0-.42-.17-.72-.5-.88-.14-.07-.21-.17-.21-.3v-.57c0-.14.08-.21.25-.21l2.74-.09v7.89c.73-.64,1.44-.96,2.13-.96,1.26,0,1.9.76,1.9,2.27v7.12c0,.24.1.49.31.74.1.12.15.21.15.25v.49c0,.12-.06.19-.17.19h-2.83c-.12,0-.19-.06-.19-.19v-.6c0-.06.04-.12.13-.18.21-.16.31-.35.31-.58v-7.14c0-.55-.23-.83-.68-.83-.37,0-.72.21-1.05.64Z"/>
        <path class="cls-1" d="M56.03,92.46v9.07c0,.4.17.69.5.86.14.08.21.19.21.34v.43c0,.15-.08.22-.25.22h-3.19c-.17,0-.25-.07-.25-.22v-.43c0-.15.07-.27.22-.34.32-.16.49-.45.49-.86v-7.15c0-.42-.17-.71-.5-.88-.14-.08-.21-.18-.21-.3v-.43c0-.14.08-.21.25-.22l2.74-.08ZM54.82,86.34c.4,0,.74.14,1.01.4.27.27.4.6.4.98s-.13.7-.4.97c-.27.27-.59.4-.97.4s-.71-.13-.98-.4c-.27-.27-.4-.59-.4-.97,0-.4.14-.73.42-.99.28-.26.59-.39.93-.39Z"/>
        <path class="cls-1" d="M64.31,94.44v7.04c0,.31.11.59.34.83.1.12.15.2.15.27v.5c0,.18-.09.28-.28.28h-2.71c-.17,0-.25-.07-.25-.22v-.56c0-.11.06-.22.19-.32.19-.17.28-.38.28-.62v-7.26c0-.35-.12-.64-.37-.86-.13-.12-.2-.22-.2-.31v-.5c0-.17.12-.25.36-.25l2.5-.06v.9c.72-.66,1.45-.99,2.17-.99s1.26.39,1.63,1.16c.87-.77,1.64-1.16,2.31-1.16.62,0,1.09.22,1.42.66.33.44.49,1.03.49,1.76v6.91c0,.28.1.51.3.71.11.1.16.18.16.24v.5c0,.18-.08.28-.25.28h-2.7c-.16,0-.24-.08-.24-.23v-.54c0-.1.05-.2.15-.3.19-.18.29-.44.29-.8v-6.65c0-.64-.23-.96-.69-.96-.25,0-.59.19-1.02.57v7.04c0,.37.12.67.37.89.09.08.14.15.14.21v.46c0,.21-.1.31-.29.31h-2.71c-.16,0-.24-.08-.24-.24v-.53c0-.1.05-.2.15-.3.19-.18.29-.45.29-.8v-6.51c0-.73-.24-1.1-.72-1.1-.28,0-.62.19-1.02.57Z"/>
        <path class="cls-1" d="M81.27,96.41v-1.62c0-.96-.37-1.43-1.11-1.43-.26,0-.39.08-.39.24,0,.06.02.15.07.28.09.22.14.42.14.58,0,.29-.1.54-.29.75-.19.2-.46.31-.8.31-.37,0-.67-.11-.89-.34-.22-.23-.34-.53-.34-.9,0-.61.27-1.1.82-1.49.54-.38,1.17-.57,1.89-.57,1.01,0,1.79.27,2.35.82.56.54.84,1.31.84,2.31v5.76c0,.32.03.56.1.72.07.17.21.27.43.32.19.04.28.14.28.3v.5c0,.41-.32.61-.95.61-.85,0-1.43-.41-1.75-1.23-.74.86-1.46,1.28-2.14,1.28s-1.2-.27-1.62-.82c-.42-.54-.64-1.24-.64-2.09,0-2.17,1.33-3.6,4-4.29ZM81.27,97.59c-1.09.4-1.63,1.28-1.63,2.65,0,1.07.28,1.61.84,1.61.25,0,.44-.12.58-.36.14-.24.21-.51.21-.8v-3.09Z"/>
        <path class="cls-1" d="M92.61,94.8c-.83-.89-1.39-1.7-1.7-2.41-.31-.71-.46-1.46-.46-2.24,0-1.18.32-2.16.96-2.96.64-.79,1.48-1.19,2.53-1.19s1.85.36,2.51,1.08c.66.72.98,1.54.98,2.46,0,1.3-.76,2.64-2.27,4.05,1.95,1.59,2.93,3.38,2.93,5.39,0,1.35-.36,2.46-1.09,3.32-.72.86-1.71,1.3-2.95,1.3s-2.16-.41-2.91-1.23c-.76-.82-1.13-1.79-1.13-2.92,0-1.6.87-3.15,2.6-4.65ZM93.33,95.43c-1,1.34-1.5,2.68-1.5,4,0,.89.22,1.62.65,2.17.43.56.98.83,1.65.83.59,0,1.08-.23,1.45-.69.37-.46.56-1.03.56-1.71,0-1.48-.94-3.02-2.81-4.62ZM94.51,92.94c.88-1.13,1.32-2.21,1.32-3.22,0-.73-.18-1.34-.55-1.83-.37-.49-.81-.73-1.32-.73s-.9.19-1.21.56-.47.84-.47,1.42c0,1.29.75,2.56,2.24,3.81Z"/>
        <path class="cls-1" d="M104.87,88.35h-1.56c-.14,0-.21-.07-.21-.2v-.64c0-.14.06-.24.19-.3l2.34-1.04c.23-.11.42-.16.58-.16h.84c.16,0,.24.08.24.24v14.55c0,.48.07.82.21,1.02.14.2.4.32.79.35.21.02.31.12.31.3v.66c0,.15-.08.23-.23.23h-4.63c-.19,0-.28-.08-.28-.24v-.59c0-.21.14-.34.42-.39.35-.06.6-.18.76-.37.16-.19.24-.51.24-.97v-12.45Z"/>
        <path class="cls-1" d="M117.39,86.01c1.3,0,2.28.75,2.96,2.24.68,1.5,1.02,3.69,1.02,6.57s-.35,5.13-1.04,6.59c-.69,1.46-1.63,2.19-2.83,2.19s-2.1-.72-2.85-2.16c-.74-1.44-1.11-3.55-1.11-6.34,0-3.09.36-5.38,1.08-6.86.72-1.48,1.64-2.23,2.76-2.23ZM118.81,91.43c0-2.81-.45-4.22-1.34-4.22-.53,0-.89.43-1.06,1.3-.18.87-.27,1.95-.27,3.26v6.8c0,2.6.44,3.9,1.33,3.9.47,0,.81-.34,1.02-1.02s.32-2.03.32-4.04v-5.97Z"/>
      </g>
      <g>
        <path class="cls-1" d="M60.68,73.37c-20.23,0-36.68-16.46-36.68-36.69S40.45,0,60.68,0s36.69,16.46,36.69,36.68-16.46,36.69-36.69,36.69ZM60.68,1.76c-19.26,0-34.92,15.67-34.92,34.92s15.66,34.92,34.92,34.92,34.92-15.67,34.92-34.92S79.94,1.76,60.68,1.76Z"/>
        <path class="cls-1" d="M52.86,65.76h-14.18c-.49,0-.88-.39-.88-.88V8.58c0-.49.39-.88.88-.88h14.18c.49,0,.88.39.88.88v56.3c0,.49-.39.88-.88.88ZM39.57,64h12.42V9.46h-12.42v54.54Z"/>
        <path class="cls-1" d="M52.5,37.57h-13.82c-.49,0-.88-.39-.88-.88s.39-.88.88-.88h13.82c.49,0,.88.39.88.88s-.39.88-.88.88Z"/>
        <path class="cls-1" d="M60.68,73.37c-.49,0-.88-.39-.88-.88V.88c0-.49.39-.88.88-.88s.88.39.88.88v71.61c0,.49-.39.88-.88.88Z"/>
        <path class="cls-1" d="M52.86,72.51c-.49,0-.88-.39-.88-.88V1.74c0-.49.39-.88.88-.88s.88.39.88.88v69.9c0,.49-.39.88-.88.88Z"/>
        <path class="cls-1" d="M82.68,65.76h-14.18c-.49,0-.88-.39-.88-.88V8.58c0-.49.39-.88.88-.88h14.18c.49,0,.88.39.88.88v56.3c0,.49-.39.88-.88.88ZM69.38,64h12.42V9.46h-12.42v54.54Z"/>
        <path class="cls-1" d="M68.5,72.51c-.49,0-.88-.39-.88-.88V1.74c0-.49.39-.88.88-.88s.88.39.88.88v69.9c0,.49-.39.88-.88.88Z"/>
      </g>
      <g>
        <path class="cls-1" d="M32.47,117.09h-1.1l-1.72-4.81h1.23l1.05,3.41h.03l1.05-3.41h1.21l-1.75,4.81Z"/>
        <path class="cls-1" d="M35.76,117.09v-4.81h1.11v4.81h-1.11Z"/>
        <path class="cls-1" d="M38.96,117.09v-4.81h1.11v3.8h1.76v1.01h-2.87Z"/>
        <path class="cls-1" d="M43.24,117.09v-4.81h1.11v3.8h1.76v1.01h-2.87Z"/>
        <path class="cls-1" d="M50.6,117.09l-.35-.94h-1.76l-.33.94h-1.2l1.91-4.81h1.07l1.89,4.81h-1.22ZM49.38,113.57l-.58,1.65h1.14l-.57-1.65Z"/>
        <path class="cls-1" d="M57.85,117.09l-.43-.47c-.15.16-.32.3-.54.4-.21.11-.48.16-.79.16-.21,0-.41-.03-.6-.08-.2-.06-.37-.15-.52-.27s-.27-.27-.37-.45c-.09-.18-.14-.39-.14-.64,0-.17.03-.32.08-.46s.12-.27.21-.37c.09-.11.19-.2.31-.29s.24-.15.36-.21c-.14-.14-.25-.3-.34-.48-.09-.17-.13-.36-.13-.57s.04-.4.13-.56c.09-.15.2-.28.33-.38.13-.1.29-.17.46-.22s.34-.07.5-.07.34.02.51.07.32.12.45.22.24.23.31.38c.08.15.12.34.12.55,0,.15-.02.29-.07.42-.05.12-.11.24-.2.34s-.18.19-.29.28c-.11.08-.23.16-.35.22l.57.62.46-.74h1.17l-.98,1.39,1.13,1.19h-1.33ZM56,115.06c-.13.05-.24.13-.34.23-.1.1-.14.24-.14.42,0,.1.02.18.05.25.04.07.08.14.14.19.06.05.12.09.2.12s.15.04.22.04c.14,0,.27-.03.38-.1.11-.06.21-.15.29-.27l-.8-.88ZM56.81,113.41c0-.12-.04-.23-.12-.31s-.18-.13-.31-.13c-.12,0-.23.04-.31.13-.08.08-.13.19-.13.32,0,.11.03.22.09.33.06.1.14.2.25.3.15-.06.27-.15.37-.25.1-.1.15-.23.15-.37Z"/>
        <path class="cls-1" d="M64.41,117.09l-.99-1.91h-.37v1.91h-1.07v-4.81h1.74c.22,0,.43.02.64.07.21.05.39.13.56.24.16.11.3.26.4.45.1.19.15.42.15.69,0,.33-.08.6-.25.82s-.4.38-.69.48l1.19,2.06h-1.29ZM64.36,113.76c0-.11-.02-.2-.07-.28s-.1-.12-.17-.16c-.07-.04-.15-.06-.24-.08s-.17-.02-.26-.02h-.59v1.12h.52c.09,0,.18,0,.28-.02.09-.02.18-.04.26-.08s.14-.1.19-.18c.05-.08.07-.18.07-.3Z"/>
        <path class="cls-1" d="M67.2,117.09v-4.81h3.06v.98h-2v.91h1.89v.93h-1.89v1h2.11v.99h-3.17Z"/>
        <path class="cls-1" d="M74.66,113.53c-.09-.13-.22-.23-.37-.3s-.3-.11-.44-.11c-.07,0-.15,0-.22.02-.08.01-.14.04-.2.08-.06.04-.11.09-.15.15-.04.06-.06.14-.06.23,0,.08.02.15.05.2.03.05.08.1.14.14.06.04.14.08.22.11.09.03.18.07.29.11.15.05.31.11.48.18s.32.15.46.26c.14.11.25.24.34.4.09.16.13.36.13.6,0,.28-.05.52-.14.72-.1.2-.23.37-.39.5-.16.13-.35.23-.56.29s-.43.1-.65.1c-.33,0-.64-.06-.94-.18s-.56-.29-.76-.51l.72-.78c.11.15.26.27.44.36.18.1.36.15.54.15.08,0,.16,0,.24-.03.08-.02.14-.05.2-.09.06-.04.1-.1.14-.16.03-.07.05-.15.05-.24s-.02-.17-.06-.23c-.04-.06-.1-.12-.18-.17-.08-.05-.18-.1-.3-.14-.12-.04-.25-.09-.4-.14-.15-.05-.29-.11-.43-.18-.14-.07-.26-.16-.37-.26s-.2-.24-.26-.39c-.07-.15-.1-.34-.1-.55,0-.27.05-.5.15-.69.1-.19.24-.35.4-.47.17-.12.36-.21.57-.27.21-.06.42-.08.64-.08.26,0,.52.05.79.15.27.1.5.25.7.44l-.7.78Z"/>
        <path class="cls-1" d="M81.76,114.67c0,.38-.06.73-.19,1.04-.12.31-.3.58-.52.81-.22.22-.48.4-.79.52-.3.12-.63.18-.99.18s-.68-.06-.99-.18c-.3-.12-.56-.3-.78-.52-.22-.22-.39-.49-.52-.81-.12-.31-.19-.66-.19-1.04s.06-.73.19-1.04c.12-.31.3-.57.52-.79.22-.22.48-.39.78-.5s.63-.18.99-.18.69.06.99.18c.3.12.57.29.79.5s.39.48.52.79c.12.31.19.66.19,1.04ZM80.58,114.67c0-.21-.03-.4-.1-.58-.06-.18-.15-.34-.27-.47-.11-.13-.25-.23-.41-.31s-.34-.11-.53-.11-.37.04-.53.11c-.16.07-.3.18-.41.31-.12.13-.2.28-.27.47-.06.18-.09.38-.09.58s.03.42.1.6c.06.18.15.34.27.47.11.13.25.23.41.31.16.08.33.11.53.11s.37-.04.53-.11c.16-.07.3-.18.41-.31.12-.13.21-.29.27-.47.06-.18.1-.38.1-.6Z"/>
        <path class="cls-1" d="M85.63,117.09l-.99-1.91h-.37v1.91h-1.07v-4.81h1.74c.22,0,.43.02.64.07.21.05.39.13.56.24.16.11.3.26.4.45.1.19.15.42.15.69,0,.33-.08.6-.25.82s-.4.38-.69.48l1.19,2.06h-1.29ZM85.58,113.76c0-.11-.02-.2-.07-.28s-.1-.12-.17-.16c-.07-.04-.15-.06-.24-.08s-.17-.02-.26-.02h-.59v1.12h.52c.09,0,.18,0,.28-.02.09-.02.18-.04.26-.08s.14-.1.19-.18c.05-.08.07-.18.07-.3Z"/>
        <path class="cls-1" d="M90.43,113.27v3.82h-1.1v-3.82h-1.29v-.99h3.67v.99h-1.29Z"/>
      </g>
    </g>
  </g>
</svg>